# xmcd
# Track frame offsets:
# 150
# 20840
# 33453
# 48828
# 60488
# 76424
# 88898
# 103484
# 116530
# 129534
# 145568
# 159807
# 169683
# 185797
# 196680
# 207857
# 222663
# 235520
#
# Disc length: 3322 seconds
# Revision: 0
# Processed by: cddbd v1.4PL0 Copyright (c) Steve Scherf et al.
# Submitted via: VisiTrax 2.9.5.180 - For more info visit www.synapsa.com
#
DISCID=f80cf812
DTITLE=James Segrest - Old Violin
DYEAR=1999
DGENRE=
TTITLE0=The old violin
TTITLE1=Hole in the wall
TTITLE2=Waltz of ages
TTITLE3=Dadblame the luck
TTITLE4=In memory of a memory
TTITLE5=Where was it the last time you saw it
TTITLE6=The front porch light
TTITLE7=Soul
TTITLE8=Old Jess
TTITLE9=Payday
TTITLE10=Let the song begin
TTITLE11=Runnin' like a scaled dog
TTITLE12=No tomorrow
TTITLE13=Send my soul to Dixie
TTITLE14=The farmers blues
TTITLE15=She's going through my change of life
TTITLE16=Hers bigger than mine
TTITLE17=I've alwas wanted you
EXTD=
EXTT0=
EXTT1=
EXTT2=
EXTT3=
EXTT4=
EXTT5=
EXTT6=
EXTT7=
EXTT8=
EXTT9=
EXTT10=
EXTT11=
EXTT12=
EXTT13=
EXTT14=
EXTT15=
EXTT16=
EXTT17=
PLAYORDER=
